<svg xmlns="http://www.w3.org/2000/svg" xml:space="preserve" width="1500" height="201" data-id="lg_5NyU9ldloN0XSWzVFu" data-version="1" viewBox="0 0 1500 201"><g data-padding="20"><g transform="translate(10 3.59)scale(.96429)"><rect width="553.133" height="198.88" x="90.341" y="-398.97" fill="none" rx="0" ry="0" transform="translate(403.93 400.89)"/><path fill="#0da2ff" d="M502.337 156.15V32.95h27.63l12.32 88.17h.35l12.32-88.17h27.64v123.2h-18.31V62.87h-.35l-14.08 93.28h-16.19l-14.08-93.28h-.35v93.28Zm94.69 0V32.95h52.8v17.6h-33.44v32.56h26.57v17.6h-26.57v37.84h33.44v17.6Zm79.02 0V50.55h-20.24v-17.6h59.84v17.6h-20.24v105.6Zm48.93 0V32.95h19.36v50.16h20.77V32.95h19.36v123.2h-19.36v-55.44h-20.77v55.44Zm73.92 0V32.95h27.63l12.32 88.17h.35l12.32-88.17h27.64v123.2h-18.31V62.87h-.35l-14.08 93.28h-16.19l-14.08-93.28h-.35v93.28Zm89.58 0 20.07-123.2h26.22l20.07 123.2h-19.36l-3.52-24.47v.35h-22l-3.52 24.12Zm23.76-40.84h17.43l-8.63-60.89h-.35Zm51.92 40.84V32.95h19.36v105.6h31.86v17.6Z" paint-order="stroke"/><rect width="553.133" height="198.88" x="90.341" y="-398.97" fill="none" rx="0" ry="0" transform="translate(397.07 399.17)"/><path fill="#fff" d="M495.467 154.43V31.23h27.63l12.32 88.18h.36l12.32-88.18h27.63v123.2h-18.31V61.15h-.35l-14.08 93.28h-16.19l-14.08-93.28h-.35v93.28Zm94.69 0V31.23h52.8v17.6h-33.44v32.56h26.58v17.6h-26.58v37.84h33.44v17.6Zm79.02 0V48.83h-20.24v-17.6h59.84v17.6h-20.24v105.6Zm48.94 0V31.23h19.36v50.16h20.77V31.23h19.36v123.2h-19.36V98.99h-20.77v55.44Zm73.91 0V31.23h27.63l12.32 88.18h.36l12.32-88.18h27.63v123.2h-18.31V61.15h-.35l-14.08 93.28h-16.19l-14.08-93.28h-.35v93.28Zm89.6 0 20.06-123.2h26.22l20.07 123.2h-19.36l-3.52-24.46v.35h-22l-3.52 24.11Zm23.76-40.83h17.42l-8.62-60.9h-.36Zm51.91 40.83V31.23h19.36v105.6h31.85v17.6Z" paint-order="stroke"/></g><path fill="transparent" stroke="transparent" d="M470 0h560v201H470z"/></g></svg>